<svg xmlns="http://www.w3.org/2000/svg" xmlns:xlink="http://www.w3.org/1999/xlink" width="1920" zoomAndPan="magnify" viewBox="0 0 1440 809.999993" height="1080" preserveAspectRatio="xMidYMid meet" version="1.0"><defs><g/><clipPath id="4bd008e716"><path d="M 386 274.992188 L 961.695312 274.992188 L 961.695312 423.492188 L 386 423.492188 Z M 386 274.992188 " clip-rule="nonzero"/></clipPath><clipPath id="39093e5029"><path d="M 1051.808594 294 L 1268 294 L 1268 516.335938 L 1051.808594 516.335938 Z M 1051.808594 294 " clip-rule="nonzero"/></clipPath></defs><rect x="-144" width="1728" fill="#ffffff" y="-80.999999" height="971.999992" fill-opacity="1"/><rect x="-144" width="1728" fill="#ffffff" y="-80.999999" height="971.999992" fill-opacity="1"/><path fill="#072539" d="M 388.261719 277.007812 L 395.753906 284.238281 L 403.242188 291.46875 L 395.753906 298.699219 L 388.261719 305.929688 L 395.753906 313.160156 L 403.242188 320.390625 L 395.753906 327.617188 L 388.261719 334.847656 L 395.753906 342.078125 L 403.242188 349.308594 L 395.753906 356.539062 L 388.261719 363.769531 L 395.753906 371 L 403.242188 378.230469 L 395.753906 385.460938 L 388.261719 392.6875 L 395.753906 399.917969 L 403.242188 407.148438 L 395.753906 414.378906 L 388.261719 421.609375 L 959.148438 421.609375 L 951.660156 414.378906 L 944.167969 407.148438 L 951.660156 399.917969 L 959.148438 392.6875 L 951.660156 385.460938 L 944.167969 378.230469 L 959.152344 363.769531 L 944.167969 349.308594 L 959.152344 334.847656 L 951.660156 327.617188 L 944.167969 320.390625 L 959.152344 305.929688 L 944.167969 291.46875 L 959.152344 277.007812 Z M 388.261719 277.007812 " fill-opacity="1" fill-rule="nonzero"/><g clip-path="url(#4bd008e716)"><path fill="#072539" d="M 959.148438 423.625 L 388.261719 423.625 C 387.441406 423.625 386.703125 423.128906 386.394531 422.363281 C 386.085938 421.601562 386.269531 420.730469 386.863281 420.160156 L 400.34375 407.148438 L 386.863281 394.140625 C 386.46875 393.757812 386.246094 393.238281 386.246094 392.6875 C 386.246094 392.140625 386.46875 391.621094 386.863281 391.238281 L 400.34375 378.230469 L 386.863281 365.21875 C 386.46875 364.839844 386.246094 364.316406 386.246094 363.769531 C 386.246094 363.226562 386.46875 362.699219 386.863281 362.320312 L 400.34375 349.308594 L 386.863281 336.300781 C 386.46875 335.917969 386.246094 335.398438 386.246094 334.847656 C 386.246094 334.300781 386.46875 333.777344 386.863281 333.398438 L 400.34375 320.390625 L 386.863281 307.378906 C 386.46875 307 386.246094 306.476562 386.246094 305.929688 C 386.246094 305.382812 386.46875 304.859375 386.863281 304.476562 L 400.34375 291.46875 L 386.863281 278.460938 C 386.269531 277.890625 386.085938 277.015625 386.394531 276.253906 C 386.703125 275.492188 387.441406 274.992188 388.261719 274.992188 L 959.148438 274.992188 C 959.96875 274.992188 960.707031 275.492188 961.015625 276.253906 C 961.324219 277.015625 961.140625 277.886719 960.550781 278.457031 L 947.074219 291.46875 L 960.550781 304.480469 C 960.941406 304.859375 961.164062 305.382812 961.164062 305.929688 C 961.164062 306.476562 960.945312 307 960.550781 307.378906 L 947.074219 320.390625 L 960.550781 333.398438 C 960.941406 333.777344 961.164062 334.300781 961.164062 334.847656 C 961.164062 335.398438 960.945312 335.917969 960.550781 336.300781 L 947.070312 349.308594 L 960.550781 362.320312 C 960.941406 362.699219 961.164062 363.222656 961.164062 363.769531 C 961.164062 364.320312 960.945312 364.839844 960.550781 365.222656 L 947.074219 378.230469 L 960.550781 391.242188 C 960.941406 391.621094 961.164062 392.144531 961.164062 392.691406 C 961.164062 393.238281 960.945312 393.761719 960.550781 394.140625 L 947.070312 407.152344 L 960.550781 420.164062 C 961.140625 420.734375 961.328125 421.605469 961.015625 422.367188 C 960.710938 423.128906 959.96875 423.625 959.148438 423.625 Z M 393.25 419.597656 L 954.160156 419.597656 L 942.769531 408.601562 C 942.375 408.222656 942.152344 407.699219 942.152344 407.148438 C 942.152344 406.601562 942.375 406.078125 942.769531 405.699219 L 956.246094 392.6875 L 942.769531 379.679688 C 942.375 379.300781 942.152344 378.777344 942.152344 378.230469 C 942.152344 377.679688 942.375 377.160156 942.769531 376.777344 L 956.246094 363.769531 L 942.769531 350.757812 C 942.375 350.378906 942.152344 349.855469 942.152344 349.308594 C 942.152344 348.757812 942.375 348.238281 942.769531 347.855469 L 956.246094 334.847656 L 942.769531 321.835938 C 942.375 321.460938 942.152344 320.933594 942.152344 320.386719 C 942.152344 319.839844 942.375 319.316406 942.769531 318.9375 L 956.246094 305.925781 L 942.769531 292.914062 C 942.375 292.535156 942.152344 292.011719 942.152344 291.464844 C 942.152344 290.917969 942.375 290.394531 942.769531 290.015625 L 954.160156 279.023438 L 393.25 279.023438 L 404.644531 290.019531 C 405.039062 290.398438 405.261719 290.921875 405.261719 291.472656 C 405.261719 292.019531 405.039062 292.539062 404.644531 292.921875 L 391.164062 305.929688 L 404.644531 318.941406 C 405.039062 319.320312 405.261719 319.84375 405.261719 320.394531 C 405.261719 320.941406 405.039062 321.464844 404.644531 321.84375 L 391.164062 334.851562 L 404.644531 347.863281 C 405.039062 348.242188 405.261719 348.765625 405.261719 349.3125 C 405.261719 349.859375 405.039062 350.382812 404.644531 350.765625 L 391.164062 363.773438 L 404.644531 376.785156 C 405.039062 377.164062 405.261719 377.6875 405.261719 378.234375 C 405.261719 378.785156 405.039062 379.304688 404.644531 379.6875 L 391.164062 392.695312 L 404.644531 405.703125 C 405.039062 406.082031 405.261719 406.605469 405.261719 407.15625 C 405.261719 407.703125 405.039062 408.226562 404.644531 408.605469 Z M 393.25 419.597656 " fill-opacity="1" fill-rule="nonzero"/></g><path stroke-linecap="butt" transform="matrix(0.524213, 0, 0, 0.524047, 1023.030315, 275.601217)" fill-opacity="1" fill="#f5d7c4" fill-rule="nonzero" stroke-linejoin="miter" d="M 69.659813 400.422217 C 70.86698 378.388186 76.619654 356.622499 86.448381 336.861938 C 88.043034 333.656717 89.898495 330.339686 93.013285 328.580542 C 98.296505 325.576579 105.36067 328.416553 109.071592 333.246747 C 112.767611 338.076941 113.959875 344.323395 115.032912 350.301505 C 125.353448 346.037815 138.043609 348.311286 146.247876 355.869645 C 154.459595 363.428003 151.762097 371.277068 148.356693 381.921383 C 153.163008 377.188092 168.103567 383.732706 171.807037 389.338116 C 175.532862 394.958434 174.638664 402.710596 171.136389 408.457632 C 167.641565 414.212122 161.948504 418.282007 156.121313 421.636308 C 144.653223 428.262917 131.963062 432.772588 118.892867 434.889525 C 115.256462 435.478391 111.329442 435.843637 108.080522 434.106854 C 101.031261 430.357491 101.731716 420.27968 99.153445 412.721321 C 95.278587 401.391238 80.986321 394.943526 69.659813 400.422217 Z M 69.659813 400.422217 " stroke="#000000" stroke-width="1" stroke-opacity="1" stroke-miterlimit="10"/><path fill="#f1c22a" d="M 1071.070312 443.664062 C 1106.058594 403.226562 1141.320312 362.523438 1183.25 329.335938 C 1186.195312 327.003906 1189.40625 324.617188 1193.152344 324.304688 C 1198.316406 323.882812 1202.855469 327.460938 1206.792969 330.835938 C 1216.046875 338.769531 1225.296875 346.699219 1234.550781 354.632812 C 1237.945312 357.542969 1241.679688 361.324219 1240.910156 365.726562 C 1240.449219 368.363281 1238.441406 370.421875 1236.53125 372.296875 C 1198.066406 410.015625 1157.988281 446.042969 1118.6875 482.917969 C 1117.960938 483.652344 1117.230469 484.382812 1116.539062 485.152344 C 1116.644531 483.777344 1117.222656 482.441406 1118.152344 481.425781 C 1117.644531 482.242188 1117.140625 483.066406 1116.632812 483.882812 C 1113.488281 481.765625 1110.34375 479.648438 1107.191406 477.527344 C 1105.207031 476.191406 1103.144531 474.769531 1102.019531 472.652344 C 1100.753906 470.273438 1100.71875 467.109375 1098.585938 465.46875 " fill-opacity="1" fill-rule="nonzero"/><path fill="#424454" d="M 1056.21875 511.34375 C 1054.488281 501.875 1055.71875 491.886719 1059.703125 483.117188 C 1064.578125 484.859375 1069.292969 487.5625 1072.320312 491.761719 C 1075.351562 495.957031 1076.378906 501.84375 1073.921875 506.398438 " fill-opacity="1" fill-rule="nonzero"/><path stroke-linecap="butt" transform="matrix(0.524213, 0, 0, 0.524047, 1023.030315, 275.601217)" fill-opacity="1" fill="#c4d5f5" fill-rule="nonzero" stroke-linejoin="miter" d="M 423.508887 169.430135 C 388.03903 144.563583 358.686979 115.090457 330.728387 82.00214 C 328.813312 79.728669 327.777533 72.513195 329.446703 70.060828 C 330.847613 68.003523 332.740332 77.410474 331.771618 75.107188 C 325.512231 60.161913 357.368037 84.096715 366.026855 94.62922 C 374.693124 105.161725 384.879531 113.741282 393.717188 124.1098 C 401.146484 132.823529 409.917076 140.381887 419.626577 146.441991 C 423.017078 148.558928 426.63858 150.601325 428.94114 153.873632 C 431.2437 157.138485 431.728057 162.110304 423.508887 169.430135 Z M 423.508887 169.430135 " stroke="#000000" stroke-width="1" stroke-opacity="1" stroke-miterlimit="10"/><path fill="#ed7994" d="M 1203.433594 313.984375 C 1217.886719 328.105469 1232.339844 342.234375 1246.789062 356.355469 C 1247.164062 356.71875 1247.585938 357.101562 1248.101562 357.105469 C 1248.609375 357.105469 1249.027344 356.734375 1249.402344 356.382812 C 1254.882812 351.183594 1260.550781 345.644531 1262.828125 338.445312 C 1265.496094 330.003906 1262.867188 320.46875 1257.421875 313.488281 C 1251.976562 306.507812 1244.027344 301.828125 1235.71875 298.765625 C 1230.929688 297 1225.675781 295.707031 1220.753906 297.070312 C 1217.140625 298.074219 1214.070312 300.410156 1211.210938 302.835938 C 1208.066406 305.515625 1204.957031 308.53125 1203.433594 313.984375 Z M 1203.433594 313.984375 " fill-opacity="1" fill-rule="nonzero"/><g clip-path="url(#39093e5029)"><path fill="#000000" d="M 1063.230469 515.167969 C 1061.136719 515.535156 1059.316406 515.949219 1057.480469 516.027344 C 1053.871094 516.1875 1051.820312 514.085938 1051.882812 509.851562 C 1051.976562 503.148438 1052.875 496.492188 1054.101562 489.921875 C 1056.5 477.011719 1060.039062 464.375 1064.542969 452.046875 C 1066.476562 446.75 1069.984375 442.167969 1073.648438 437.949219 C 1078.832031 431.980469 1083.914062 425.917969 1089.175781 420.007812 C 1099.582031 408.332031 1110.304688 396.96875 1121.136719 385.703125 C 1134.378906 371.929688 1148.257812 358.789062 1162.296875 345.851562 C 1171.855469 337.039062 1181.179688 327.921875 1191.613281 320.082031 C 1192.632812 319.3125 1192.410156 318.332031 1192.261719 317.257812 C 1191.652344 312.8125 1194.574219 309.015625 1199.007812 309.4375 C 1202.605469 309.785156 1204.339844 307.902344 1206.445312 305.800781 C 1209.09375 303.160156 1211.101562 299.816406 1214.523438 298.015625 C 1222.667969 293.722656 1230.996094 294.386719 1239.316406 297.375 C 1246.261719 299.871094 1252.707031 303.191406 1257.847656 308.726562 C 1269.742188 321.550781 1271.566406 333.132812 1261.195312 347.992188 C 1259.371094 350.609375 1257.265625 352.957031 1254.78125 355.019531 C 1252.765625 356.691406 1250.953125 358.289062 1251.074219 361.734375 C 1251.21875 365.929688 1246.449219 368.128906 1241.757812 366.796875 C 1229.675781 380.464844 1215.65625 392.074219 1202.589844 404.675781 C 1193.503906 413.425781 1184.640625 422.414062 1175.519531 431.121094 C 1161.878906 444.140625 1148.554688 457.472656 1135.371094 470.941406 C 1129.273438 477.164062 1122.628906 482.839844 1117.238281 489.804688 C 1114.101562 493.851562 1109.414062 496.539062 1104.8125 498.796875 C 1098.023438 502.132812 1091.0625 505.113281 1084.023438 507.925781 C 1077.269531 510.617188 1070.308594 512.605469 1063.230469 515.167969 Z M 1203.386719 368.5625 C 1210.085938 362.4375 1216.78125 356.308594 1223.75 349.933594 C 1219.410156 346 1215.179688 342.171875 1210.71875 338.125 C 1168.855469 376.125 1127.820312 414.550781 1089.117188 456.613281 C 1097.296875 456.875 1100.996094 461.816406 1104.277344 467.476562 C 1116.984375 453.84375 1129.78125 440.9375 1142.625 428.078125 C 1162.542969 408.136719 1182.246094 387.96875 1203.386719 368.5625 Z M 1149.253906 389.679688 C 1159.84375 379.660156 1170.351562 369.558594 1181.039062 359.648438 C 1189.761719 351.5625 1198.6875 343.695312 1206.824219 336.371094 C 1203.109375 332.214844 1199.507812 328.15625 1195.859375 324.136719 C 1194.785156 322.960938 1193.875 323.515625 1192.980469 324.542969 C 1186.394531 332.074219 1178.875 338.664062 1171.644531 345.539062 C 1160.375 356.261719 1148.863281 366.742188 1137.703125 377.574219 C 1127.65625 387.328125 1117.835938 397.316406 1108.109375 407.394531 C 1096.570312 419.347656 1085.265625 431.527344 1073.910156 444.429688 C 1079.597656 445.8125 1083.546875 448.960938 1086.207031 453.660156 C 1092.394531 447.042969 1098.324219 440.617188 1104.339844 434.28125 C 1118.761719 419.097656 1133.769531 404.492188 1149.253906 389.679688 Z M 1203.179688 395.523438 C 1214.5625 385.046875 1225.949219 374.566406 1238.0625 363.421875 C 1235.136719 360.757812 1231.976562 358.269531 1229.320312 355.328125 C 1227.4375 353.25 1226.285156 353.625 1224.546875 355.273438 C 1211.988281 367.1875 1199.253906 378.925781 1186.804688 390.960938 C 1164.3125 412.703125 1142.667969 435.292969 1120.734375 457.59375 C 1115.894531 462.511719 1111.035156 467.429688 1105.75 472.621094 C 1111.117188 474.394531 1113.535156 478.859375 1116.59375 482.933594 C 1144.378906 452.582031 1173.265625 423.890625 1203.179688 395.523438 Z M 1220.527344 324.402344 C 1226.488281 330.433594 1232.792969 336.125 1238.386719 342.527344 C 1241.3125 345.875 1244.320312 349.152344 1247.300781 352.453125 C 1248.261719 353.523438 1249.53125 354.832031 1250.636719 353.050781 C 1252.457031 350.121094 1255.371094 348.292969 1257.34375 345.472656 C 1265.253906 334.152344 1263.480469 322.070312 1254.9375 312.328125 C 1248.703125 305.21875 1240.527344 301.65625 1231.550781 299.550781 C 1226.214844 298.296875 1220.910156 299.1875 1216.476562 301.824219 C 1212.875 303.960938 1210.226562 307.726562 1207.226562 310.839844 C 1206.410156 311.6875 1206.398438 312.808594 1207.496094 313.535156 C 1212.097656 316.597656 1215.894531 320.617188 1220.527344 324.402344 Z M 1093.453125 497.394531 C 1098.378906 495.222656 1103.3125 493.027344 1107.859375 490.140625 C 1109.492188 489.101562 1112.785156 488.160156 1111.390625 485.488281 C 1109.292969 481.457031 1106.804688 477.292969 1101.164062 477.390625 C 1098.773438 477.433594 1097.496094 476.273438 1097.765625 473.722656 C 1097.878906 472.691406 1097.835938 471.636719 1097.855469 470.59375 C 1097.960938 465.042969 1092.773438 460.789062 1087.441406 462.375 C 1084.652344 463.210938 1083.25 462.375 1082.367188 459.902344 C 1081.9375 458.707031 1081.53125 457.503906 1081.078125 456.320312 C 1079.640625 452.566406 1074.394531 448.980469 1070.761719 449.238281 C 1067.394531 459.847656 1064.523438 470.574219 1061.796875 481.5 C 1072.960938 484.25 1079.125 491.335938 1080.929688 502.265625 C 1085.378906 501.460938 1088.980469 499.035156 1093.453125 497.394531 Z M 1198.402344 320.046875 C 1204.289062 325.546875 1210.042969 331.203125 1216.09375 336.523438 C 1223.910156 343.398438 1231.445312 350.53125 1238.441406 358.242188 C 1239.722656 359.660156 1240.648438 361.472656 1242.585938 362.316406 C 1244.144531 362.996094 1245.570312 363.214844 1246.636719 361.765625 C 1247.691406 360.339844 1247.226562 359.066406 1245.96875 357.804688 C 1242.863281 354.691406 1239.90625 351.421875 1236.855469 348.25 C 1225.417969 336.371094 1214.292969 324.164062 1201.109375 314.097656 C 1199.910156 313.179688 1199.265625 313.203125 1198.144531 313.925781 C 1195.171875 315.859375 1196.503906 317.734375 1198.402344 320.046875 Z M 1063.285156 487.359375 C 1062.027344 486.621094 1061.003906 486.316406 1060.539062 488.257812 C 1058.921875 494.992188 1058.644531 501.894531 1057.8125 508.730469 C 1057.78125 509 1058.089844 509.316406 1058.398438 509.914062 C 1063.777344 509.375 1068.621094 506.890625 1073.699219 505.265625 C 1075.199219 504.789062 1074.949219 503.375 1074.726562 502.316406 C 1073.363281 495.71875 1070.171875 490.429688 1063.285156 487.359375 Z M 1063.285156 487.359375 " fill-opacity="1" fill-rule="nonzero"/></g><g fill="#ffffff" fill-opacity="1"><g transform="translate(446.159314, 378.975323)"><g><path d="M 36.691406 -27.296875 C 43.414062 -29.402344 46.007812 -32.96875 46.007812 -37.664062 C 46.007812 -44.226562 40.984375 -50.300781 22.519531 -50.300781 C 18.628906 -50.300781 10.933594 -49.976562 2.671875 -50.300781 L 2.671875 -47.0625 C 6.398438 -46.738281 7.9375 -46.089844 7.9375 -43.171875 L 7.9375 -7.289062 C 7.9375 -4.453125 6.5625 -3.5625 2.023438 -3.238281 L 2.023438 0 L 27.78125 0 C 43.496094 0 51.355469 -4.859375 51.355469 -13.851562 C 51.355469 -20.410156 47.140625 -25.191406 36.691406 -27.296875 Z M 21.222656 -46.898438 C 22.355469 -46.980469 23.328125 -46.980469 25.109375 -46.980469 C 31.429688 -46.980469 33.777344 -42.929688 33.777344 -38.152344 C 33.777344 -32.398438 30.617188 -29.160156 21.222656 -27.460938 Z M 27.78125 -3.644531 L 25.433594 -3.644531 C 21.546875 -3.644531 21.222656 -4.859375 21.222656 -7.695312 L 21.222656 -23.570312 L 26.8125 -24.625 C 34.992188 -24.625 38.070312 -20.65625 38.070312 -14.175781 C 38.070312 -6.722656 34.101562 -3.644531 27.78125 -3.644531 Z M 27.78125 -3.644531 "/></g></g></g><g fill="#ffffff" fill-opacity="1"><g transform="translate(499.133325, 378.975323)"><g><path d="M 12.796875 -45.359375 C 16.441406 -45.359375 19.277344 -48.355469 19.277344 -52.003906 C 19.277344 -55.648438 16.441406 -58.480469 12.796875 -58.480469 C 9.152344 -58.480469 6.15625 -55.648438 6.15625 -52.003906 C 6.15625 -48.355469 9.152344 -45.359375 12.796875 -45.359375 Z M 19.359375 -6.238281 L 19.359375 -26.890625 C 19.359375 -32.15625 19.359375 -35.234375 19.84375 -39.121094 C 19.359375 -40.175781 18.550781 -40.984375 17.414062 -41.472656 C 12.71875 -38.71875 6.964844 -37.015625 1.621094 -36.046875 L 1.621094 -32.804688 C 4.941406 -33.371094 6.640625 -32.480469 6.640625 -28.917969 L 6.640625 -6.238281 C 6.640625 -4.210938 4.453125 -3.5625 1.621094 -3.238281 L 1.621094 0 C 9.234375 -0.160156 16.929688 -0.160156 24.542969 0 L 24.542969 -3.238281 C 21.464844 -3.5625 19.359375 -4.210938 19.359375 -6.238281 Z M 19.359375 -6.238281 "/></g></g></g><g fill="#ffffff" fill-opacity="1"><g transform="translate(525.296338, 378.975323)"><g><path d="M 39.042969 -8.503906 L 35.640625 -8.503906 C 33.371094 -4.050781 29.808594 -2.753906 26.324219 -2.753906 C 17.902344 -2.753906 15.550781 -11.421875 15.550781 -19.035156 L 34.75 -19.035156 C 38.554688 -19.035156 39.933594 -20.980469 39.933594 -25.109375 C 39.933594 -33.535156 33.128906 -41.308594 22.519531 -41.308594 C 12.636719 -41.308594 2.429688 -34.34375 2.429688 -20.332031 C 2.429688 -6.640625 12.554688 0.890625 23.652344 0.890625 C 29.644531 0.890625 35.800781 -1.539062 39.042969 -8.503906 Z M 28.429688 -22.355469 L 15.550781 -22.355469 C 15.550781 -32.074219 17.980469 -37.746094 22.4375 -37.746094 C 27.054688 -37.746094 28.429688 -32.074219 28.429688 -22.355469 Z M 28.429688 -22.355469 "/></g></g></g><g fill="#ffffff" fill-opacity="1"><g transform="translate(567.659354, 378.975323)"><g><path d="M 45.277344 -6.238281 L 45.277344 -27.054688 C 45.277344 -38.636719 38.878906 -41.472656 33.128906 -41.472656 C 24.625 -41.472656 19.765625 -35.398438 18.226562 -32.320312 L 17.738281 -32.320312 L 18.792969 -39.121094 C 18.386719 -40.175781 17.496094 -40.984375 16.441406 -41.472656 C 11.339844 -38.554688 6.964844 -37.261719 1.378906 -36.046875 L 1.378906 -32.804688 C 4.375 -33.371094 6.316406 -32.480469 6.316406 -28.917969 L 6.316406 -6.238281 C 6.316406 -4.210938 4.132812 -3.5625 1.132812 -3.238281 L 1.132812 0 C 8.910156 -0.242188 16.523438 -0.242188 24.300781 0 L 24.300781 -3.238281 C 21.222656 -3.484375 19.035156 -4.210938 19.035156 -6.238281 L 19.035156 -28.511719 C 19.519531 -30.859375 22.355469 -35.640625 27.054688 -35.640625 C 30.535156 -35.640625 32.5625 -33.128906 32.5625 -27.054688 L 32.5625 -6.238281 C 32.5625 -4.210938 30.375 -3.484375 27.296875 -3.238281 L 27.296875 0 C 35.152344 -0.242188 42.769531 -0.242188 50.542969 0 L 50.542969 -3.238281 C 47.464844 -3.5625 45.277344 -4.210938 45.277344 -6.238281 Z M 45.277344 -6.238281 "/></g></g></g><g fill="#ffffff" fill-opacity="1"><g transform="translate(619.418369, 378.975323)"><g><path d="M 19.277344 0.242188 L 28.511719 0.242188 L 37.988281 -31.347656 C 39.121094 -35.152344 40.984375 -36.773438 44.46875 -37.097656 L 46.25 -37.261719 L 46.25 -40.582031 L 26.890625 -40.582031 L 26.890625 -37.261719 L 29.726562 -37.097656 C 32.722656 -37.097656 35.234375 -35.476562 34.019531 -31.347656 L 27.621094 -9.234375 L 20.492188 -31.265625 C 19.117188 -35.234375 19.925781 -36.855469 22.355469 -37.097656 L 23.894531 -37.261719 L 23.894531 -40.582031 L 1.214844 -40.582031 L 1.214844 -37.261719 L 2.914062 -37.097656 C 6.480469 -36.855469 7.128906 -34.992188 8.425781 -31.265625 Z M 19.277344 0.242188 "/></g></g></g><g fill="#ffffff" fill-opacity="1"><g transform="translate(666.884385, 378.975323)"><g><path d="M 39.042969 -8.503906 L 35.640625 -8.503906 C 33.371094 -4.050781 29.808594 -2.753906 26.324219 -2.753906 C 17.902344 -2.753906 15.550781 -11.421875 15.550781 -19.035156 L 34.75 -19.035156 C 38.554688 -19.035156 39.933594 -20.980469 39.933594 -25.109375 C 39.933594 -33.535156 33.128906 -41.308594 22.519531 -41.308594 C 12.636719 -41.308594 2.429688 -34.34375 2.429688 -20.332031 C 2.429688 -6.640625 12.554688 0.890625 23.652344 0.890625 C 29.644531 0.890625 35.800781 -1.539062 39.042969 -8.503906 Z M 28.429688 -22.355469 L 15.550781 -22.355469 C 15.550781 -32.074219 17.980469 -37.746094 22.4375 -37.746094 C 27.054688 -37.746094 28.429688 -32.074219 28.429688 -22.355469 Z M 28.429688 -22.355469 "/></g></g></g><g fill="#ffffff" fill-opacity="1"><g transform="translate(709.24739, 378.975323)"><g><path d="M 45.277344 -6.238281 L 45.277344 -27.054688 C 45.277344 -38.636719 38.878906 -41.472656 33.128906 -41.472656 C 24.625 -41.472656 19.765625 -35.398438 18.226562 -32.320312 L 17.738281 -32.320312 L 18.792969 -39.121094 C 18.386719 -40.175781 17.496094 -40.984375 16.441406 -41.472656 C 11.339844 -38.554688 6.964844 -37.261719 1.378906 -36.046875 L 1.378906 -32.804688 C 4.375 -33.371094 6.316406 -32.480469 6.316406 -28.917969 L 6.316406 -6.238281 C 6.316406 -4.210938 4.132812 -3.5625 1.132812 -3.238281 L 1.132812 0 C 8.910156 -0.242188 16.523438 -0.242188 24.300781 0 L 24.300781 -3.238281 C 21.222656 -3.484375 19.035156 -4.210938 19.035156 -6.238281 L 19.035156 -28.511719 C 19.519531 -30.859375 22.355469 -35.640625 27.054688 -35.640625 C 30.535156 -35.640625 32.5625 -33.128906 32.5625 -27.054688 L 32.5625 -6.238281 C 32.5625 -4.210938 30.375 -3.484375 27.296875 -3.238281 L 27.296875 0 C 35.152344 -0.242188 42.769531 -0.242188 50.542969 0 L 50.542969 -3.238281 C 47.464844 -3.5625 45.277344 -4.210938 45.277344 -6.238281 Z M 45.277344 -6.238281 "/></g></g></g><g fill="#ffffff" fill-opacity="1"><g transform="translate(761.006405, 378.975323)"><g><path d="M 12.796875 -45.359375 C 16.441406 -45.359375 19.277344 -48.355469 19.277344 -52.003906 C 19.277344 -55.648438 16.441406 -58.480469 12.796875 -58.480469 C 9.152344 -58.480469 6.15625 -55.648438 6.15625 -52.003906 C 6.15625 -48.355469 9.152344 -45.359375 12.796875 -45.359375 Z M 19.359375 -6.238281 L 19.359375 -26.890625 C 19.359375 -32.15625 19.359375 -35.234375 19.84375 -39.121094 C 19.359375 -40.175781 18.550781 -40.984375 17.414062 -41.472656 C 12.71875 -38.71875 6.964844 -37.015625 1.621094 -36.046875 L 1.621094 -32.804688 C 4.941406 -33.371094 6.640625 -32.480469 6.640625 -28.917969 L 6.640625 -6.238281 C 6.640625 -4.210938 4.453125 -3.5625 1.621094 -3.238281 L 1.621094 0 C 9.234375 -0.160156 16.929688 -0.160156 24.542969 0 L 24.542969 -3.238281 C 21.464844 -3.5625 19.359375 -4.210938 19.359375 -6.238281 Z M 19.359375 -6.238281 "/></g></g></g><g fill="#ffffff" fill-opacity="1"><g transform="translate(787.169429, 378.975323)"><g><path d="M 43.578125 -9.964844 L 43.578125 -42.523438 C 43.578125 -47.710938 43.578125 -50.785156 44.0625 -54.675781 C 43.578125 -55.726562 42.769531 -56.539062 41.714844 -57.023438 C 36.9375 -54.269531 31.183594 -52.570312 25.921875 -51.597656 L 25.921875 -48.355469 C 29.160156 -48.925781 30.859375 -48.03125 30.859375 -44.550781 L 30.859375 -36.855469 C 29.726562 -37.988281 27.054688 -41.308594 20.898438 -41.308594 C 12.472656 -41.308594 2.429688 -34.667969 2.429688 -20.410156 C 2.429688 -5.425781 12.960938 0.890625 21.140625 0.890625 C 26.972656 0.890625 30.050781 -2.269531 31.265625 -4.941406 L 31.832031 -4.941406 L 31.265625 -1.132812 C 31.671875 -0.160156 32.320312 0.648438 33.695312 1.132812 C 37.664062 0.242188 43.253906 -0.808594 48.84375 -0.890625 L 48.84375 -4.292969 C 45.683594 -4.617188 43.578125 -6.074219 43.578125 -9.964844 Z M 30.859375 -10.609375 C 30.457031 -7.371094 27.945312 -2.671875 24.382812 -2.671875 C 19.765625 -2.671875 15.714844 -10.855469 15.714844 -22.921875 C 15.714844 -31.429688 18.226562 -37.746094 23.164062 -37.746094 C 26.890625 -37.746094 29.808594 -34.261719 30.859375 -32.886719 Z M 30.859375 -10.609375 "/></g></g></g><g fill="#ffffff" fill-opacity="1"><g transform="translate(837.63247, 378.975323)"><g><path d="M 22.921875 -41.308594 C 13.851562 -41.308594 2.429688 -34.992188 2.429688 -20.332031 C 2.429688 -6.074219 13.851562 0.890625 22.84375 0.890625 C 31.914062 0.890625 43.335938 -5.425781 43.335938 -20.089844 C 43.335938 -34.34375 31.914062 -41.308594 22.921875 -41.308594 Z M 24.21875 -2.671875 C 19.277344 -2.671875 15.714844 -11.664062 15.714844 -24.460938 C 15.714844 -32.320312 17.578125 -37.746094 21.546875 -37.746094 C 26.488281 -37.746094 30.050781 -28.835938 30.050781 -16.039062 C 30.050781 -8.101562 28.1875 -2.671875 24.21875 -2.671875 Z M 24.21875 -2.671875 "/></g></g></g><g fill="#ffffff" fill-opacity="1"><g transform="translate(883.397569, 378.975323)"><g/></g></g><g fill="#000000" fill-opacity="1"><g transform="translate(314.241348, 516.106338)"><g><path d="M 21.222656 -18.710938 L 22.761719 -18.871094 C 40.257812 -21.140625 47.789062 -26.566406 47.789062 -36.125 C 47.789062 -44.792969 41.554688 -50.300781 23.164062 -50.300781 C 18.792969 -50.300781 10.933594 -49.976562 2.671875 -50.300781 L 2.671875 -47.0625 C 6.398438 -46.738281 7.9375 -46.738281 7.9375 -44.226562 L 7.9375 -7.289062 C 7.9375 -4.453125 6.5625 -3.5625 2.023438 -3.238281 L 2.023438 0 C 10.449219 -0.242188 18.792969 -0.242188 27.214844 0 L 27.214844 -3.238281 C 22.597656 -3.5625 21.222656 -4.453125 21.222656 -7.289062 Z M 21.222656 -22.4375 L 21.222656 -46.980469 L 25.515625 -46.980469 C 32.5625 -46.980469 35.476562 -42.039062 35.476562 -35.558594 C 35.476562 -28.351562 31.753906 -23.164062 22.4375 -22.519531 Z M 21.222656 -22.4375 "/></g></g></g><g fill="#000000" fill-opacity="1"><g transform="translate(364.056367, 516.106338)"><g><path d="M 38.71875 -9.964844 L 38.71875 -29.808594 C 38.71875 -39.769531 31.753906 -41.308594 24.785156 -41.308594 C 12.71875 -41.308594 4.375 -36.289062 4.375 -30.214844 C 4.375 -27.539062 5.992188 -25.597656 9.71875 -25.597656 C 19.117188 -25.597656 12.230469 -38.230469 21.222656 -38.230469 C 24.460938 -38.230469 26 -36.449219 26 -29.96875 L 26 -25.027344 C 7.855469 -21.140625 2.023438 -17.253906 2.023438 -9.71875 C 2.023438 -2.105469 7.855469 1.132812 13.933594 1.132812 C 21.707031 1.132812 25.191406 -4.453125 26.082031 -5.992188 L 26.890625 -5.992188 L 26.488281 -1.132812 C 26.8125 -0.160156 27.539062 0.648438 28.753906 1.132812 C 32.886719 0.242188 38.394531 -0.808594 43.984375 -0.890625 L 43.984375 -4.292969 C 40.824219 -4.617188 38.71875 -6.074219 38.71875 -9.964844 Z M 19.117188 -4.375 C 16.28125 -4.375 14.660156 -7.046875 14.660156 -10.691406 C 14.660156 -13.039062 15.472656 -19.765625 26 -22.355469 L 26 -10.773438 C 25.109375 -8.585938 22.921875 -4.375 19.117188 -4.375 Z M 19.117188 -4.375 "/></g></g></g><g fill="#000000" fill-opacity="1"><g transform="translate(409.659377, 516.106338)"><g><path d="M 29.078125 -41.308594 C 25.109375 -41.308594 21.628906 -39.609375 19.117188 -37.261719 C 19.117188 -37.828125 19.195312 -38.476562 19.277344 -39.121094 C 18.871094 -40.175781 17.980469 -40.984375 16.929688 -41.472656 C 12.3125 -38.71875 6.480469 -37.015625 1.214844 -36.046875 L 1.214844 -32.804688 C 4.453125 -33.371094 6.15625 -32.480469 6.15625 -28.917969 L 6.15625 6.722656 C 6.15625 11.664062 5.425781 13.769531 4.617188 14.902344 C 5.023438 16.28125 5.992188 17.253906 7.210938 17.578125 C 11.90625 14.742188 18.628906 12.554688 24.542969 11.746094 L 24.542969 8.425781 C 20.734375 8.585938 18.871094 7.9375 18.871094 3.96875 L 18.871094 -2.914062 C 21.058594 -0.890625 24.058594 0.890625 28.429688 0.890625 C 36.449219 0.890625 47.222656 -4.699219 47.222656 -20.007812 C 47.222656 -34.425781 37.339844 -41.308594 29.078125 -41.308594 Z M 27.539062 -2.753906 C 23.976562 -2.753906 19.195312 -6.5625 18.871094 -12.636719 L 18.871094 -26.890625 C 18.871094 -29.726562 18.871094 -31.996094 18.953125 -34.101562 C 20.734375 -35.882812 22.84375 -37.179688 25.109375 -37.179688 C 30.535156 -37.179688 33.535156 -29.644531 33.535156 -16.6875 C 33.535156 -9.152344 32.320312 -2.753906 27.539062 -2.753906 Z M 27.539062 -2.753906 "/></g></g></g><g fill="#000000" fill-opacity="1"><g transform="translate(459.312393, 516.106338)"><g><path d="M 39.042969 -8.503906 L 35.640625 -8.503906 C 33.371094 -4.050781 29.808594 -2.753906 26.324219 -2.753906 C 17.902344 -2.753906 15.550781 -11.421875 15.550781 -19.035156 L 34.75 -19.035156 C 38.554688 -19.035156 39.933594 -20.980469 39.933594 -25.109375 C 39.933594 -33.535156 33.128906 -41.308594 22.519531 -41.308594 C 12.636719 -41.308594 2.429688 -34.34375 2.429688 -20.332031 C 2.429688 -6.640625 12.554688 0.890625 23.652344 0.890625 C 29.644531 0.890625 35.800781 -1.539062 39.042969 -8.503906 Z M 28.429688 -22.355469 L 15.550781 -22.355469 C 15.550781 -32.074219 17.980469 -37.746094 22.4375 -37.746094 C 27.054688 -37.746094 28.429688 -32.074219 28.429688 -22.355469 Z M 28.429688 -22.355469 "/></g></g></g><g fill="#000000" fill-opacity="1"><g transform="translate(501.675409, 516.106338)"><g><path d="M 19.359375 -6.238281 L 19.359375 -42.523438 C 19.359375 -47.710938 19.359375 -50.785156 19.84375 -54.675781 C 19.359375 -55.726562 18.550781 -56.539062 17.414062 -57.023438 C 12.71875 -54.269531 6.964844 -52.570312 1.621094 -51.597656 L 1.621094 -48.355469 C 4.941406 -48.925781 6.640625 -48.03125 6.640625 -44.550781 L 6.640625 -6.238281 C 6.640625 -4.210938 4.453125 -3.5625 1.621094 -3.238281 L 1.621094 0 C 9.234375 -0.160156 16.929688 -0.160156 24.542969 0 L 24.542969 -3.238281 C 21.464844 -3.5625 19.359375 -4.210938 19.359375 -6.238281 Z M 19.359375 -6.238281 "/></g></g></g><g fill="#000000" fill-opacity="1"><g transform="translate(527.838421, 516.106338)"><g><path d="M 39.042969 -8.503906 L 35.640625 -8.503906 C 33.371094 -4.050781 29.808594 -2.753906 26.324219 -2.753906 C 17.902344 -2.753906 15.550781 -11.421875 15.550781 -19.035156 L 34.75 -19.035156 C 38.554688 -19.035156 39.933594 -20.980469 39.933594 -25.109375 C 39.933594 -33.535156 33.128906 -41.308594 22.519531 -41.308594 C 12.636719 -41.308594 2.429688 -34.34375 2.429688 -20.332031 C 2.429688 -6.640625 12.554688 0.890625 23.652344 0.890625 C 29.644531 0.890625 35.800781 -1.539062 39.042969 -8.503906 Z M 28.429688 -22.355469 L 15.550781 -22.355469 C 15.550781 -32.074219 17.980469 -37.746094 22.4375 -37.746094 C 27.054688 -37.746094 28.429688 -32.074219 28.429688 -22.355469 Z M 28.429688 -22.355469 "/></g></g></g><g fill="#000000" fill-opacity="1"><g transform="translate(570.201448, 516.106338)"><g><path d="M 31.105469 -41.472656 C 25.027344 -41.472656 20.816406 -36.691406 18.0625 -29.890625 L 17.414062 -29.890625 L 19.035156 -39.121094 C 18.550781 -40.175781 17.738281 -40.984375 16.6875 -41.472656 C 11.582031 -38.636719 7.210938 -37.261719 1.621094 -36.046875 L 1.621094 -32.804688 C 4.617188 -33.371094 6.640625 -32.480469 6.640625 -28.917969 L 6.640625 -6.238281 C 6.640625 -4.210938 4.453125 -3.5625 1.621094 -3.238281 L 1.621094 0 C 9.234375 -0.160156 17.171875 -0.160156 24.785156 0 L 24.785156 -3.238281 C 21.628906 -3.5625 19.359375 -4.210938 19.359375 -6.238281 L 19.359375 -25.921875 C 19.683594 -27.703125 21.304688 -33.128906 25.433594 -33.128906 C 28.753906 -33.128906 30.132812 -29.890625 33.613281 -29.890625 C 35.964844 -29.890625 38.554688 -31.429688 38.554688 -35.074219 C 38.554688 -39.203125 35.398438 -41.472656 31.105469 -41.472656 Z M 31.105469 -41.472656 "/></g></g></g><g fill="#000000" fill-opacity="1"><g transform="translate(609.567474, 516.106338)"><g><path d="M 12.796875 -45.359375 C 16.441406 -45.359375 19.277344 -48.355469 19.277344 -52.003906 C 19.277344 -55.648438 16.441406 -58.480469 12.796875 -58.480469 C 9.152344 -58.480469 6.15625 -55.648438 6.15625 -52.003906 C 6.15625 -48.355469 9.152344 -45.359375 12.796875 -45.359375 Z M 19.359375 -6.238281 L 19.359375 -26.890625 C 19.359375 -32.15625 19.359375 -35.234375 19.84375 -39.121094 C 19.359375 -40.175781 18.550781 -40.984375 17.414062 -41.472656 C 12.71875 -38.71875 6.964844 -37.015625 1.621094 -36.046875 L 1.621094 -32.804688 C 4.941406 -33.371094 6.640625 -32.480469 6.640625 -28.917969 L 6.640625 -6.238281 C 6.640625 -4.210938 4.453125 -3.5625 1.621094 -3.238281 L 1.621094 0 C 9.234375 -0.160156 16.929688 -0.160156 24.542969 0 L 24.542969 -3.238281 C 21.464844 -3.5625 19.359375 -4.210938 19.359375 -6.238281 Z M 19.359375 -6.238281 "/></g></g></g><g fill="#000000" fill-opacity="1"><g transform="translate(635.730498, 516.106338)"><g><path d="M 38.71875 -9.964844 L 38.71875 -29.808594 C 38.71875 -39.769531 31.753906 -41.308594 24.785156 -41.308594 C 12.71875 -41.308594 4.375 -36.289062 4.375 -30.214844 C 4.375 -27.539062 5.992188 -25.597656 9.71875 -25.597656 C 19.117188 -25.597656 12.230469 -38.230469 21.222656 -38.230469 C 24.460938 -38.230469 26 -36.449219 26 -29.96875 L 26 -25.027344 C 7.855469 -21.140625 2.023438 -17.253906 2.023438 -9.71875 C 2.023438 -2.105469 7.855469 1.132812 13.933594 1.132812 C 21.707031 1.132812 25.191406 -4.453125 26.082031 -5.992188 L 26.890625 -5.992188 L 26.488281 -1.132812 C 26.8125 -0.160156 27.539062 0.648438 28.753906 1.132812 C 32.886719 0.242188 38.394531 -0.808594 43.984375 -0.890625 L 43.984375 -4.292969 C 40.824219 -4.617188 38.71875 -6.074219 38.71875 -9.964844 Z M 19.117188 -4.375 C 16.28125 -4.375 14.660156 -7.046875 14.660156 -10.691406 C 14.660156 -13.039062 15.472656 -19.765625 26 -22.355469 L 26 -10.773438 C 25.109375 -8.585938 22.921875 -4.375 19.117188 -4.375 Z M 19.117188 -4.375 "/></g></g></g><g fill="#000000" fill-opacity="1"><g transform="translate(681.333507, 516.106338)"><g/></g></g><g fill="#000000" fill-opacity="1"><g transform="translate(699.153514, 516.106338)"><g><path d="M 43.578125 -9.964844 L 43.578125 -42.523438 C 43.578125 -47.710938 43.578125 -50.785156 44.0625 -54.675781 C 43.578125 -55.726562 42.769531 -56.539062 41.714844 -57.023438 C 36.9375 -54.269531 31.183594 -52.570312 25.921875 -51.597656 L 25.921875 -48.355469 C 29.160156 -48.925781 30.859375 -48.03125 30.859375 -44.550781 L 30.859375 -36.855469 C 29.726562 -37.988281 27.054688 -41.308594 20.898438 -41.308594 C 12.472656 -41.308594 2.429688 -34.667969 2.429688 -20.410156 C 2.429688 -5.425781 12.960938 0.890625 21.140625 0.890625 C 26.972656 0.890625 30.050781 -2.269531 31.265625 -4.941406 L 31.832031 -4.941406 L 31.265625 -1.132812 C 31.671875 -0.160156 32.320312 0.648438 33.695312 1.132812 C 37.664062 0.242188 43.253906 -0.808594 48.84375 -0.890625 L 48.84375 -4.292969 C 45.683594 -4.617188 43.578125 -6.074219 43.578125 -9.964844 Z M 30.859375 -10.609375 C 30.457031 -7.371094 27.945312 -2.671875 24.382812 -2.671875 C 19.765625 -2.671875 15.714844 -10.855469 15.714844 -22.921875 C 15.714844 -31.429688 18.226562 -37.746094 23.164062 -37.746094 C 26.890625 -37.746094 29.808594 -34.261719 30.859375 -32.886719 Z M 30.859375 -10.609375 "/></g></g></g><g fill="#000000" fill-opacity="1"><g transform="translate(749.616509, 516.106338)"><g><path d="M 39.042969 -8.503906 L 35.640625 -8.503906 C 33.371094 -4.050781 29.808594 -2.753906 26.324219 -2.753906 C 17.902344 -2.753906 15.550781 -11.421875 15.550781 -19.035156 L 34.75 -19.035156 C 38.554688 -19.035156 39.933594 -20.980469 39.933594 -25.109375 C 39.933594 -33.535156 33.128906 -41.308594 22.519531 -41.308594 C 12.636719 -41.308594 2.429688 -34.34375 2.429688 -20.332031 C 2.429688 -6.640625 12.554688 0.890625 23.652344 0.890625 C 29.644531 0.890625 35.800781 -1.539062 39.042969 -8.503906 Z M 28.429688 -22.355469 L 15.550781 -22.355469 C 15.550781 -32.074219 17.980469 -37.746094 22.4375 -37.746094 C 27.054688 -37.746094 28.429688 -32.074219 28.429688 -22.355469 Z M 28.429688 -22.355469 "/></g></g></g><g fill="#000000" fill-opacity="1"><g transform="translate(791.979514, 516.106338)"><g/></g></g><g fill="#000000" fill-opacity="1"><g transform="translate(809.79952, 516.106338)"><g><path d="M 31.105469 -41.472656 C 25.027344 -41.472656 20.816406 -36.691406 18.0625 -29.890625 L 17.414062 -29.890625 L 19.035156 -39.121094 C 18.550781 -40.175781 17.738281 -40.984375 16.6875 -41.472656 C 11.582031 -38.636719 7.210938 -37.261719 1.621094 -36.046875 L 1.621094 -32.804688 C 4.617188 -33.371094 6.640625 -32.480469 6.640625 -28.917969 L 6.640625 -6.238281 C 6.640625 -4.210938 4.453125 -3.5625 1.621094 -3.238281 L 1.621094 0 C 9.234375 -0.160156 17.171875 -0.160156 24.785156 0 L 24.785156 -3.238281 C 21.628906 -3.5625 19.359375 -4.210938 19.359375 -6.238281 L 19.359375 -25.921875 C 19.683594 -27.703125 21.304688 -33.128906 25.433594 -33.128906 C 28.753906 -33.128906 30.132812 -29.890625 33.613281 -29.890625 C 35.964844 -29.890625 38.554688 -31.429688 38.554688 -35.074219 C 38.554688 -39.203125 35.398438 -41.472656 31.105469 -41.472656 Z M 31.105469 -41.472656 "/></g></g></g><g fill="#000000" fill-opacity="1"><g transform="translate(849.165546, 516.106338)"><g><path d="M 22.921875 -41.308594 C 13.851562 -41.308594 2.429688 -34.992188 2.429688 -20.332031 C 2.429688 -6.074219 13.851562 0.890625 22.84375 0.890625 C 31.914062 0.890625 43.335938 -5.425781 43.335938 -20.089844 C 43.335938 -34.34375 31.914062 -41.308594 22.921875 -41.308594 Z M 24.21875 -2.671875 C 19.277344 -2.671875 15.714844 -11.664062 15.714844 -24.460938 C 15.714844 -32.320312 17.578125 -37.746094 21.546875 -37.746094 C 26.488281 -37.746094 30.050781 -28.835938 30.050781 -16.039062 C 30.050781 -8.101562 28.1875 -2.671875 24.21875 -2.671875 Z M 24.21875 -2.671875 "/></g></g></g><g fill="#000000" fill-opacity="1"><g transform="translate(894.930559, 516.106338)"><g><path d="M 34.507812 -11.339844 C 34.507812 -20.25 24.300781 -23.8125 19.519531 -26 C 15.632812 -27.703125 12.554688 -29.566406 12.554688 -32.96875 C 12.554688 -35.800781 14.5 -37.828125 17.980469 -37.828125 C 21.304688 -37.828125 26.082031 -35.882812 29.160156 -28.996094 L 31.914062 -28.996094 L 31.183594 -40.582031 L 27.863281 -40.582031 C 27.703125 -39.691406 27.054688 -38.960938 25.757812 -38.960938 C 23.652344 -38.960938 21.222656 -41.230469 16.039062 -41.230469 C 8.34375 -41.230469 2.429688 -36.613281 2.429688 -29.320312 C 2.429688 -20.410156 11.257812 -16.847656 16.441406 -14.5 C 20.65625 -12.636719 23.894531 -10.933594 23.894531 -7.128906 C 23.894531 -4.132812 21.871094 -2.269531 18.710938 -2.269531 C 14.5 -2.269531 7.53125 -5.671875 5.589844 -11.582031 L 2.671875 -11.582031 L 3.726562 0 L 7.453125 0 C 7.453125 -1.296875 8.019531 -2.023438 8.828125 -2.023438 C 10.609375 -2.023438 14.257812 1.132812 19.925781 1.132812 C 26.890625 1.132812 34.507812 -3.644531 34.507812 -11.339844 Z M 34.507812 -11.339844 "/></g></g></g><g fill="#000000" fill-opacity="1"><g transform="translate(931.461563, 516.106338)"><g><path d="M 12.796875 -45.359375 C 16.441406 -45.359375 19.277344 -48.355469 19.277344 -52.003906 C 19.277344 -55.648438 16.441406 -58.480469 12.796875 -58.480469 C 9.152344 -58.480469 6.15625 -55.648438 6.15625 -52.003906 C 6.15625 -48.355469 9.152344 -45.359375 12.796875 -45.359375 Z M 19.359375 -6.238281 L 19.359375 -26.890625 C 19.359375 -32.15625 19.359375 -35.234375 19.84375 -39.121094 C 19.359375 -40.175781 18.550781 -40.984375 17.414062 -41.472656 C 12.71875 -38.71875 6.964844 -37.015625 1.621094 -36.046875 L 1.621094 -32.804688 C 4.941406 -33.371094 6.640625 -32.480469 6.640625 -28.917969 L 6.640625 -6.238281 C 6.640625 -4.210938 4.453125 -3.5625 1.621094 -3.238281 L 1.621094 0 C 9.234375 -0.160156 16.929688 -0.160156 24.542969 0 L 24.542969 -3.238281 C 21.464844 -3.5625 19.359375 -4.210938 19.359375 -6.238281 Z M 19.359375 -6.238281 "/></g></g></g><g fill="#000000" fill-opacity="1"><g transform="translate(957.624586, 516.106338)"><g><path d="M 27.460938 -2.671875 L 27.460938 -6.238281 C 26.242188 -5.183594 24.382812 -4.050781 22.519531 -4.050781 C 19.359375 -4.050781 18.710938 -7.210938 18.710938 -11.015625 L 18.710938 -36.855469 L 27.460938 -36.855469 L 27.460938 -40.582031 L 18.710938 -40.582031 L 18.710938 -51.597656 L 14.660156 -51.597656 C 12.71875 -43.660156 9.558594 -40.582031 1.621094 -40.582031 L 1.621094 -36.855469 L 5.992188 -36.855469 L 5.992188 -12.554688 C 5.992188 -3.5625 10.609375 0.566406 17.980469 0.566406 C 22.519531 0.566406 25.597656 -0.890625 27.460938 -2.671875 Z M 27.460938 -2.671875 "/></g></g></g><g fill="#000000" fill-opacity="1"><g transform="translate(987.513623, 516.106338)"><g><path d="M 38.71875 -9.964844 L 38.71875 -29.808594 C 38.71875 -39.769531 31.753906 -41.308594 24.785156 -41.308594 C 12.71875 -41.308594 4.375 -36.289062 4.375 -30.214844 C 4.375 -27.539062 5.992188 -25.597656 9.71875 -25.597656 C 19.117188 -25.597656 12.230469 -38.230469 21.222656 -38.230469 C 24.460938 -38.230469 26 -36.449219 26 -29.96875 L 26 -25.027344 C 7.855469 -21.140625 2.023438 -17.253906 2.023438 -9.71875 C 2.023438 -2.105469 7.855469 1.132812 13.933594 1.132812 C 21.707031 1.132812 25.191406 -4.453125 26.082031 -5.992188 L 26.890625 -5.992188 L 26.488281 -1.132812 C 26.8125 -0.160156 27.539062 0.648438 28.753906 1.132812 C 32.886719 0.242188 38.394531 -0.808594 43.984375 -0.890625 L 43.984375 -4.292969 C 40.824219 -4.617188 38.71875 -6.074219 38.71875 -9.964844 Z M 19.117188 -4.375 C 16.28125 -4.375 14.660156 -7.046875 14.660156 -10.691406 C 14.660156 -13.039062 15.472656 -19.765625 26 -22.355469 L 26 -10.773438 C 25.109375 -8.585938 22.921875 -4.375 19.117188 -4.375 Z M 19.117188 -4.375 "/></g></g></g></svg>